<svg xmlns="http://www.w3.org/2000/svg" xmlns:xlink="http://www.w3.org/1999/xlink" version="1.1" width="256" height="256" viewBox="0 0 256 256" xml:space="preserve">

<defs>
</defs>
<g style="stroke: none; stroke-width: 0; stroke-dasharray: none; stroke-linecap: butt; stroke-linejoin: miter; stroke-miterlimit: 10; fill: none; fill-rule: nonzero; opacity: 1;" transform="translate(1.4065934065934016 1.4065934065934016) scale(2.81 2.81)" >
	<path d="M 86.903 47.73 l -17.834 -5.669 c -10.264 -3.536 -21.207 -8.764 -32.371 -14.541 c -0.975 -0.505 -2.172 -0.24 -2.844 0.628 c -4.776 6.165 -11.312 8.721 -20.002 6.864 c -0.221 -0.047 -0.445 -0.129 -0.645 -0.234 c -3.187 -1.675 -5.498 -3.562 -7.218 -5.591 c -0.86 -1.014 -2.415 -1.167 -3.341 -0.212 c -1.481 1.527 -2.436 4.445 -2.646 9.338 c -0.003 0.069 -0.003 0.141 -0.001 0.211 L 0.646 56.02 c 0.044 1.199 1.011 2.159 2.21 2.195 l 3.976 0.119 l 0.536 2.943 c 0.123 0.673 0.699 1.169 1.382 1.19 l 1.993 0.062 c 0.647 0.02 1.23 -0.391 1.427 -1.009 l 0.958 -2.998 l 4.989 0.15 l 0.511 2.808 c 0.123 0.673 0.699 1.169 1.382 1.19 l 1.993 0.062 c 0.647 0.02 1.23 -0.391 1.427 -1.009 l 0.916 -2.865 l 23.193 0.696 c 2.973 -0.043 5.861 -0.174 8.697 -0.361 c 0.008 0.024 0.009 0.048 0.018 0.072 l 0.974 2.552 c 0.213 0.557 0.786 0.89 1.375 0.799 l 1.718 -0.266 c 0.558 -0.086 0.991 -0.532 1.062 -1.093 l 0.315 -2.515 c 1.508 -0.152 2.993 -0.328 4.461 -0.522 l 0.752 1.97 c 0.213 0.557 0.786 0.89 1.375 0.799 l 1.718 -0.266 c 0.558 -0.086 0.991 -0.532 1.062 -1.092 l 0.274 -2.187 c 1.614 -0.276 3.207 -0.574 4.771 -0.901 l 0.802 2.101 c 0.213 0.557 0.786 0.89 1.375 0.799 l 1.718 -0.266 c 0.558 -0.086 0.991 -0.532 1.062 -1.093 l 0.346 -2.756 c 0.001 -0.007 -0.001 -0.013 0 -0.02 c 1.213 -0.31 2.418 -0.628 3.601 -0.971 C 90.51 53.016 91.927 49.046 86.903 47.73 z" style="stroke: none; stroke-width: 1; stroke-dasharray: none; stroke-linecap: butt; stroke-linejoin: miter; stroke-miterlimit: 10; fill: rgb(247,62,66); fill-rule: nonzero; opacity: 1;" transform=" matrix(1 0 0 1 0 0) " stroke-linecap="round" />
	<path d="M 16.568 53.612 L 0.544 53.261 c 0 0 -0.545 -14.878 -0.542 -14.947 C 8.919 39.893 15.132 44.276 16.568 53.612 z" style="stroke: none; stroke-width: 1; stroke-dasharray: none; stroke-linecap: butt; stroke-linejoin: miter; stroke-miterlimit: 10; fill: rgb(229,57,61); fill-rule: nonzero; opacity: 1;" transform=" matrix(1 0 0 1 0 0) " stroke-linecap="round" />
	<path d="M 87.389 47.885 c -0.828 0.581 -1.949 1.079 -3.326 1.41 c -11.082 3.211 -23.513 5.014 -37.475 5.217 l -44.684 -1.34 C 1.376 53.156 0.9 52.954 0.521 52.64 l 0.124 3.38 c 0.044 1.199 1.011 2.159 2.21 2.195 l 3.976 0.119 l 0.536 2.943 c 0.123 0.673 0.699 1.169 1.382 1.19 l 1.993 0.062 c 0.647 0.02 1.23 -0.391 1.427 -1.009 l 0.958 -2.998 l 4.989 0.15 l 0.511 2.808 c 0.123 0.673 0.699 1.169 1.382 1.19 l 1.993 0.062 c 0.647 0.02 1.23 -0.391 1.427 -1.009 l 0.916 -2.865 l 23.193 0.696 c 2.973 -0.043 5.861 -0.174 8.697 -0.361 c 0.008 0.024 0.009 0.048 0.018 0.072 l 0.974 2.552 c 0.213 0.557 0.786 0.89 1.375 0.799 l 1.718 -0.266 c 0.558 -0.086 0.991 -0.532 1.062 -1.093 l 0.315 -2.515 c 1.508 -0.152 2.993 -0.328 4.461 -0.522 l 0.752 1.97 c 0.213 0.557 0.786 0.89 1.375 0.799 l 1.718 -0.266 c 0.558 -0.086 0.991 -0.532 1.062 -1.092 l 0.274 -2.187 c 1.614 -0.276 3.207 -0.574 4.771 -0.901 l 0.802 2.101 c 0.213 0.557 0.786 0.89 1.375 0.799 l 1.718 -0.266 c 0.558 -0.086 0.991 -0.532 1.062 -1.093 l 0.346 -2.756 c 0.001 -0.007 -0.001 -0.013 0 -0.02 c 1.213 -0.31 2.418 -0.628 3.601 -0.971 C 90.318 53.062 91.805 49.328 87.389 47.885 z" style="stroke: none; stroke-width: 1; stroke-dasharray: none; stroke-linecap: butt; stroke-linejoin: miter; stroke-miterlimit: 10; fill: rgb(87,89,93); fill-rule: nonzero; opacity: 1;" transform=" matrix(1 0 0 1 0 0) " stroke-linecap="round" />
	<path d="M 25.898 53.892 l -23.994 -0.72 C 1.376 53.156 0.9 52.954 0.521 52.64 l 0.124 3.38 c 0.044 1.199 1.011 2.159 2.21 2.195 l 3.976 0.119 l 0.536 2.943 c 0.123 0.673 0.699 1.169 1.382 1.19 l 1.993 0.062 c 0.647 0.02 1.23 -0.391 1.427 -1.009 l 0.958 -2.998 l 4.989 0.15 l 0.511 2.808 c 0.123 0.673 0.699 1.169 1.382 1.19 l 1.993 0.062 c 0.647 0.02 1.23 -0.391 1.427 -1.009 l 0.916 -2.865 l 9.025 0.271 C 30.077 57.5 27.452 55.711 25.898 53.892 z" style="stroke: none; stroke-width: 1; stroke-dasharray: none; stroke-linecap: butt; stroke-linejoin: miter; stroke-miterlimit: 10; fill: rgb(63,64,66); fill-rule: nonzero; opacity: 1;" transform=" matrix(1 0 0 1 0 0) " stroke-linecap="round" />
	<path d="M 69.099 42.077 c -10.264 -3.536 -21.207 -8.764 -32.371 -14.541 c -0.975 -0.505 -2.172 -0.24 -2.845 0.628 c -1.197 1.545 -2.505 2.864 -3.929 3.943 c 8.666 5.295 22.192 8.84 37.647 11.69 C 70.039 44.209 70.355 42.476 69.099 42.077 z" style="stroke: none; stroke-width: 1; stroke-dasharray: none; stroke-linecap: butt; stroke-linejoin: miter; stroke-miterlimit: 10; fill: rgb(229,57,61); fill-rule: nonzero; opacity: 1;" transform=" matrix(1 0 0 1 0 0) " stroke-linecap="round" />
	<circle cx="31.175" cy="44.095" r="6.285" style="stroke: none; stroke-width: 1; stroke-dasharray: none; stroke-linecap: butt; stroke-linejoin: miter; stroke-miterlimit: 10; fill: rgb(229,57,61); fill-rule: nonzero; opacity: 1;" transform="  matrix(1 0 0 1 0 0) "/>
	<path d="M 41.046 34.268 c -0.265 0 -0.528 -0.104 -0.725 -0.312 c -0.38 -0.4 -0.364 -1.033 0.037 -1.414 l 2.331 -2.213 c 0.4 -0.381 1.033 -0.364 1.414 0.037 c 0.38 0.4 0.364 1.033 -0.037 1.414 l -2.331 2.213 C 41.541 34.177 41.293 34.268 41.046 34.268 z" style="stroke: none; stroke-width: 1; stroke-dasharray: none; stroke-linecap: butt; stroke-linejoin: miter; stroke-miterlimit: 10; fill: rgb(63,64,66); fill-rule: nonzero; opacity: 1;" transform=" matrix(1 0 0 1 0 0) " stroke-linecap="round" />
	<path d="M 45.481 36.485 c -0.265 0 -0.528 -0.104 -0.725 -0.312 c -0.38 -0.4 -0.364 -1.033 0.037 -1.413 l 2.473 -2.349 c 0.4 -0.383 1.033 -0.364 1.414 0.036 c 0.38 0.4 0.364 1.033 -0.037 1.413 L 46.17 36.21 C 45.977 36.395 45.729 36.485 45.481 36.485 z" style="stroke: none; stroke-width: 1; stroke-dasharray: none; stroke-linecap: butt; stroke-linejoin: miter; stroke-miterlimit: 10; fill: rgb(63,64,66); fill-rule: nonzero; opacity: 1;" transform=" matrix(1 0 0 1 0 0) " stroke-linecap="round" />
	<path d="M 50.13 38.108 c -0.265 0 -0.529 -0.104 -0.725 -0.312 c -0.38 -0.4 -0.364 -1.033 0.037 -1.414 l 1.974 -1.874 c 0.399 -0.38 1.033 -0.364 1.414 0.037 c 0.38 0.4 0.364 1.033 -0.037 1.414 l -1.974 1.874 C 50.625 38.018 50.378 38.108 50.13 38.108 z" style="stroke: none; stroke-width: 1; stroke-dasharray: none; stroke-linecap: butt; stroke-linejoin: miter; stroke-miterlimit: 10; fill: rgb(63,64,66); fill-rule: nonzero; opacity: 1;" transform=" matrix(1 0 0 1 0 0) " stroke-linecap="round" />
	<path d="M 55.215 39.71 c -0.264 0 -0.528 -0.104 -0.725 -0.312 c -0.38 -0.4 -0.364 -1.033 0.036 -1.413 l 1.466 -1.394 c 0.4 -0.381 1.034 -0.364 1.414 0.036 c 0.381 0.4 0.364 1.033 -0.036 1.413 l -1.466 1.394 C 55.711 39.619 55.463 39.71 55.215 39.71 z" style="stroke: none; stroke-width: 1; stroke-dasharray: none; stroke-linecap: butt; stroke-linejoin: miter; stroke-miterlimit: 10; fill: rgb(63,64,66); fill-rule: nonzero; opacity: 1;" transform=" matrix(1 0 0 1 0 0) " stroke-linecap="round" />
</g>
</svg>